<svg id="Layer_1" data-name="Layer 1" xmlns="http://www.w3.org/2000/svg" viewBox="0 0 130.71 26.72"><defs><style>.cls-1{fill:#fabeab;}</style></defs><title>nearabout-logo</title><path class="cls-1" d="M8.42,13.31,8.31.26h4.54V26.52H7.75L4.44,12.26l.11,14.26H0V.26H5.38Z" transform="translate(-0.02 -0.03)"/><path class="cls-1" d="M15.48.26h9.76V4.95h-4.5v5.89H25v4.69H20.73v6.3h4.58v4.69H15.48Z" transform="translate(-0.02 -0.03)"/><path class="cls-1" d="M37.62.26l3.45,26.27H35.85l-.41-3.83h-3.3l-.38,3.83H27L30.45.26ZM33.79,6.64,32.63,18.12H35Z" transform="translate(-0.02 -0.03)"/><path class="cls-1" d="M53.42,14.1q2.29.64,2.29,3.38v9H50.45v-9a.83.83,0,0,0-.94-.94H48.2v9.94H42.95V.26h7.84q4.88,0,4.88,4.88V10.2Q55.67,13.28,53.42,14.1Zm-3-8.33a.83.83,0,0,0-.94-.94H48.2v7.28h1.28a.83.83,0,0,0,.94-.94Z" transform="translate(-0.02 -0.03)"/><path class="cls-1" d="M68.09.26l3.45,26.27H66.33l-.41-3.83h-3.3l-.38,3.83H57.47L60.92.26ZM64.26,6.64,63.1,18.12h2.36Z" transform="translate(-0.02 -0.03)"/><path class="cls-1" d="M83.85,12.94q2.25.64,2.25,3.38v5.33q0,4.88-4.88,4.88H73.42V.26h7.73Q86,.26,86,5.13V9Q86,12.12,83.85,12.94Zm-3-7.24a.83.83,0,0,0-.94-.94H78.63V11h1.24a.83.83,0,0,0,.94-.94Zm-2.18,9.68V22h1.31a.83.83,0,0,0,.94-.94V16.32a.83.83,0,0,0-.94-.94Z" transform="translate(-0.02 -0.03)"/><path class="cls-1" d="M101.6,21.87q0,4.88-4.88,4.88H93.34q-4.88,0-4.88-4.88v-17Q88.47,0,93.34,0h3.38q4.88,0,4.88,4.88ZM96.35,5.47a.83.83,0,0,0-.94-.94h-.75a.83.83,0,0,0-.94.94V21.31a.83.83,0,0,0,.94.94h.75a.83.83,0,0,0,.94-.94Z" transform="translate(-0.02 -0.03)"/><path class="cls-1" d="M117.06.26V21.87q0,4.88-4.88,4.88H109q-4.88,0-4.88-4.88V.26h5.25V21.31a.83.83,0,0,0,.94.94h.56a.83.83,0,0,0,.94-.94V.26Z" transform="translate(-0.02 -0.03)"/><path class="cls-1" d="M127.53,26.52h-5.25V4.95h-3.19V.26h11.63V4.95h-3.19Z" transform="translate(-0.02 -0.03)"/></svg>